<?xml version="1.0" encoding="utf-8" standalone="no"?>
<!DOCTYPE svg PUBLIC "-//W3C//DTD SVG 1.1//EN"
  "http://www.w3.org/Graphics/SVG/1.1/DTD/svg11.dtd">
<!-- Created with matplotlib (http://matplotlib.org/) -->
<svg height="432pt" version="1.1" viewBox="0 0 576 432" width="576pt" xmlns="http://www.w3.org/2000/svg" xmlns:xlink="http://www.w3.org/1999/xlink">
 <defs>
  <style type="text/css">
*{stroke-linecap:butt;stroke-linejoin:round;}
  </style>
 </defs>
 <g id="figure_1">
  <g id="patch_1">
   <path d="
M0 432
L576 432
L576 0
L0 0
z
" style="fill:#ffffff;"/>
  </g>
  <g id="axes_1">
   <g id="patch_2">
    <path d="
M72 388.8
L518.4 388.8
L518.4 43.2
L72 43.2
z
" style="fill:#ffffff;"/>
   </g>
   <g id="line2d_1">
    <path clip-path="url(#p7ff5b81e1d)" d="
M72 376.744
L205.92 376.636
L219.312 376.387
L226.008 376.093
L232.704 375.56
L237.168 374.98
L241.632 374.12
L243.864 373.545
L246.096 372.845
L248.328 371.995
L250.56 370.962
L252.792 369.71
L255.024 368.194
L257.256 366.362
L259.488 364.153
L261.72 361.497
L263.952 358.315
L266.184 354.517
L268.416 350.005
L270.648 344.676
L272.88 338.422
L275.112 331.141
L277.344 322.74
L279.576 313.149
L281.808 302.328
L284.04 290.283
L286.272 277.075
L288.504 262.827
L292.968 232.021
L299.664 184.273
L301.896 169.173
L304.128 154.925
L306.36 141.717
L308.592 129.672
L310.824 118.851
L313.056 109.26
L315.288 100.859
L317.52 93.5782
L319.752 87.3244
L321.984 81.9949
L324.216 77.483
L326.448 73.6849
L328.68 70.5027
L330.912 67.8471
L333.144 65.6384
L335.376 63.8064
L337.608 62.2904
L339.84 61.0382
L342.072 60.0055
L344.304 59.155
L346.536 58.4552
L351 57.4075
L355.464 56.7013
L359.928 56.2262
L366.624 55.7891
L375.552 55.4957
L388.944 55.3281
L417.96 55.2612
L516.168 55.2558
L516.168 55.2558" style="fill:none;stroke:#0000ff;stroke-linecap:square;"/>
   </g>
   <g id="matplotlib.axis_1">
    <g id="xtick_1">
     <g id="line2d_2">
      <path clip-path="url(#p7ff5b81e1d)" d="
M72 388.8
L72 43.2" style="fill:none;stroke:#000000;stroke-dasharray:1.000000,3.000000;stroke-dashoffset:0.0;stroke-width:0.5;"/>
     </g>
     <g id="line2d_3">
      <defs>
       <path d="
M0 0
L0 -4" id="m93b0483c22" style="stroke:#000000;stroke-width:0.5;"/>
      </defs>
      <g>
       <use style="stroke:#000000;stroke-width:0.5;" x="72.0" xlink:href="#m93b0483c22" y="388.8"/>
      </g>
     </g>
     <g id="line2d_4">
      <defs>
       <path d="
M0 0
L0 4" id="m741efc42ff" style="stroke:#000000;stroke-width:0.5;"/>
      </defs>
      <g>
       <use style="stroke:#000000;stroke-width:0.5;" x="72.0" xlink:href="#m741efc42ff" y="43.2"/>
      </g>
     </g>
     <g id="text_1">
      <!-- $-10.0$ -->
      <defs>
       <path d="
M65.9062 23
C67.5938 23 69.4062 23 69.4062 25
C69.4062 27 67.5938 27 65.9062 27
L11.7969 27
C10.0938 27 8.29688 27 8.29688 25
C8.29688 23 10.0938 23 11.7969 23
z
" id="CMSY10-0"/>
       <path d="
M26.5938 63.3125
C26.5938 65.4062 26.5 65.5 25.0938 65.5
C21.2031 61.1875 15.2969 59.7969 9.70312 59.7969
C9.40625 59.7969 8.90625 59.7969 8.79688 59.6094
C8.70312 59.3906 8.70312 59.1719 8.70312 57
C11.7969 57 17 57.5938 21 59.9844
L21 7.20312
C21 3.6875 20.7969 2.5 12.2031 2.5
L9.20312 2.5
L9.20312 0
C14 0 19 0 23.7969 0
C28.5938 0 33.5938 0 38.4062 0
L38.4062 2.5
L35.4062 2.5
C26.7969 2.5 26.5938 3.59375 26.5938 7.15625
z
" id="CMR17-49"/>
       <path d="
M42 31.6406
C42 37.75 41.9062 48.125 37.7031 56.1094
C34 63.1094 28.0938 65.5938 22.9062 65.5938
C18.0938 65.5938 12 63.4062 8.20312 56.2031
C4.20312 48.7188 3.79688 39.4375 3.79688 31.6406
C3.79688 25.9531 3.90625 17.2812 7 9.67188
C11.2969 -0.609375 19 -2 22.9062 -2
C27.5 -2 34.5 -0.109375 38.5938 9.375
C41.5938 16.2812 42 24.3594 42 31.6406
M22.9062 -0.40625
C16.5 -0.40625 12.7031 5.07812 11.2969 12.6875
C10.2031 18.5625 10.2031 27.1562 10.2031 32.75
C10.2031 40.4375 10.2031 46.8281 11.5 52.9219
C13.4062 61.3906 19 64 22.9062 64
C27 64 32.2969 61.2969 34.2031 53.125
C35.5 47.4375 35.5938 40.7344 35.5938 32.75
C35.5938 26.25 35.5938 18.2656 34.4062 12.375
C32.2969 1.48438 26.4062 -0.40625 22.9062 -0.40625" id="CMR17-48"/>
       <path d="
M18.4062 4.79688
C18.4062 7.6875 16 9.67188 13.5938 9.67188
C10.7031 9.67188 8.70312 7.28125 8.70312 4.89062
C8.70312 2 11.0938 0 13.5 0
C16.4062 0 18.4062 2.39062 18.4062 4.79688" id="CMMI12-58"/>
      </defs>
      <g transform="translate(56.9454392829 401.670650466)scale(0.12 -0.12)">
       <use transform="scale(0.996264009963)" xlink:href="#CMSY10-0"/>
       <use transform="translate(77.4874676506 0.0)scale(0.996264009963)" xlink:href="#CMR17-49"/>
       <use transform="translate(123.177944768 0.0)scale(0.996264009963)" xlink:href="#CMR17-48"/>
       <use transform="translate(168.868421885 0.0)scale(0.996264009963)" xlink:href="#CMMI12-58"/>
       <use transform="translate(195.965598975 0.0)scale(0.996264009963)" xlink:href="#CMR17-48"/>
      </g>
     </g>
    </g>
    <g id="xtick_2">
     <g id="line2d_5">
      <path clip-path="url(#p7ff5b81e1d)" d="
M127.8 388.8
L127.8 43.2" style="fill:none;stroke:#000000;stroke-dasharray:1.000000,3.000000;stroke-dashoffset:0.0;stroke-width:0.5;"/>
     </g>
     <g id="line2d_6">
      <g>
       <use style="stroke:#000000;stroke-width:0.5;" x="127.8" xlink:href="#m93b0483c22" y="388.8"/>
      </g>
     </g>
     <g id="line2d_7">
      <g>
       <use style="stroke:#000000;stroke-width:0.5;" x="127.8" xlink:href="#m741efc42ff" y="43.2"/>
      </g>
     </g>
     <g id="text_2">
      <!-- $-7.5$ -->
      <defs>
       <path d="
M11.4062 57.6875
C12.4062 57.2812 16.5 56 20.7031 56
C30 56 35.0938 61.0156 38 63.9219
C38 64.7344 38 65.25 37.4062 65.25
C37.2969 65.25 37.0938 65.25 36.2969 64.8281
C32.7969 63.3125 28.7031 62.0781 23.7031 62.0781
C20.7031 62.0781 16.2031 62.5 11.2969 64.7344
C10.2031 65.25 10 65.25 9.90625 65.25
C9.40625 65.25 9.29688 65.1406 9.29688 63.1562
L9.29688 34.2812
C9.29688 32.5 9.29688 32 10.2969 32
C10.7969 32 11 32.2031 11.5 32.9062
C14.7031 37.4844 19.0938 39.4062 24.0938 39.4062
C27.5938 39.4062 35.0938 37.2188 35.0938 20.1406
C35.0938 16.9531 35.0938 11.1719 32.0938 6.57812
C29.5938 2.48438 25.7031 0.390625 21.4062 0.390625
C14.7969 0.390625 8.09375 5 6.29688 12.7188
C6.70312 12.6094 7.5 12.4219 7.90625 12.4219
C9.20312 12.4219 11.7031 13.125 11.7031 16.2188
C11.7031 18.9062 9.79688 20 7.90625 20
C5.59375 20 4.09375 18.5938 4.09375 15.7969
C4.09375 7.09375 11 -2 21.5938 -2
C31.9062 -2 41.7031 6.875 41.7031 19.75
C41.7031 31.7188 33.9062 41 24.2031 41
C19.0938 41 14.7969 39.0938 11.4062 35.4531
z
" id="CMR17-53"/>
       <path d="
M45.0938 61.5781
L45.0938 63.7656
L21.5938 63.7656
C9.90625 63.7656 9.70312 65.0781 9.29688 67
L7.5 67
L4.59375 48.3438
L6.40625 48.3438
C6.70312 50.2344 7.40625 55.3125 8.59375 57.2031
C9.20312 58 16.5938 58 18.2969 58
L40.2969 58
L29.2031 41.5781
C21.7969 30.5312 16.7031 15.6094 16.7031 2.57812
C16.7031 1.39062 16.7031 -2 20.2969 -2
C23.9062 -2 23.9062 1.39062 23.9062 2.67188
L23.9062 7.26562
C23.9062 23.5625 26.7031 34.3125 31.2969 41.1875
z
" id="CMR17-55"/>
      </defs>
      <g transform="translate(115.671934409 401.670650466)scale(0.12 -0.12)">
       <use transform="scale(0.996264009963)" xlink:href="#CMSY10-0"/>
       <use transform="translate(77.4874676506 0.0)scale(0.996264009963)" xlink:href="#CMR17-55"/>
       <use transform="translate(123.177944768 0.0)scale(0.996264009963)" xlink:href="#CMMI12-58"/>
       <use transform="translate(150.275121857 0.0)scale(0.996264009963)" xlink:href="#CMR17-53"/>
      </g>
     </g>
    </g>
    <g id="xtick_3">
     <g id="line2d_8">
      <path clip-path="url(#p7ff5b81e1d)" d="
M183.6 388.8
L183.6 43.2" style="fill:none;stroke:#000000;stroke-dasharray:1.000000,3.000000;stroke-dashoffset:0.0;stroke-width:0.5;"/>
     </g>
     <g id="line2d_9">
      <g>
       <use style="stroke:#000000;stroke-width:0.5;" x="183.6" xlink:href="#m93b0483c22" y="388.8"/>
      </g>
     </g>
     <g id="line2d_10">
      <g>
       <use style="stroke:#000000;stroke-width:0.5;" x="183.6" xlink:href="#m741efc42ff" y="43.2"/>
      </g>
     </g>
     <g id="text_3">
      <!-- $-5.0$ -->
      <g transform="translate(171.471934409 401.670650466)scale(0.12 -0.12)">
       <use transform="scale(0.996264009963)" xlink:href="#CMSY10-0"/>
       <use transform="translate(77.4874676506 0.0)scale(0.996264009963)" xlink:href="#CMR17-53"/>
       <use transform="translate(123.177944768 0.0)scale(0.996264009963)" xlink:href="#CMMI12-58"/>
       <use transform="translate(150.275121857 0.0)scale(0.996264009963)" xlink:href="#CMR17-48"/>
      </g>
     </g>
    </g>
    <g id="xtick_4">
     <g id="line2d_11">
      <path clip-path="url(#p7ff5b81e1d)" d="
M239.4 388.8
L239.4 43.2" style="fill:none;stroke:#000000;stroke-dasharray:1.000000,3.000000;stroke-dashoffset:0.0;stroke-width:0.5;"/>
     </g>
     <g id="line2d_12">
      <g>
       <use style="stroke:#000000;stroke-width:0.5;" x="239.4" xlink:href="#m93b0483c22" y="388.8"/>
      </g>
     </g>
     <g id="line2d_13">
      <g>
       <use style="stroke:#000000;stroke-width:0.5;" x="239.4" xlink:href="#m741efc42ff" y="43.2"/>
      </g>
     </g>
     <g id="text_4">
      <!-- $-2.5$ -->
      <defs>
       <path d="
M41.7031 15.4531
L39.9062 15.4531
C38.9062 8.375 38.0938 7.17188 37.7031 6.5625
C37.2031 5.76562 30 5.76562 28.5938 5.76562
L9.40625 5.76562
C13 9.67188 20 16.75 28.5 24.9531
C34.5938 30.7344 41.7031 37.5312 41.7031 47.4219
C41.7031 59.2188 32.2969 66 21.7969 66
C10.7969 66 4.09375 56.3125 4.09375 47.3438
C4.09375 43.4375 7 42.9375 8.20312 42.9375
C9.20312 42.9375 12.2031 43.5469 12.2031 47.0312
C12.2031 50.1094 9.59375 51 8.20312 51
C7.59375 51 7 50.9062 6.59375 50.7031
C8.5 59.2188 14.2969 63.4062 20.4062 63.4062
C29.0938 63.4062 34.7969 56.5156 34.7969 47.4219
C34.7969 38.7344 29.7031 31.25 24 24.75
L4.09375 2.28125
L4.09375 0
L39.2969 0
z
" id="CMR17-50"/>
      </defs>
      <g transform="translate(227.271934409 401.670650466)scale(0.12 -0.12)">
       <use transform="scale(0.996264009963)" xlink:href="#CMSY10-0"/>
       <use transform="translate(77.4874676506 0.0)scale(0.996264009963)" xlink:href="#CMR17-50"/>
       <use transform="translate(123.177944768 0.0)scale(0.996264009963)" xlink:href="#CMMI12-58"/>
       <use transform="translate(150.275121857 0.0)scale(0.996264009963)" xlink:href="#CMR17-53"/>
      </g>
     </g>
    </g>
    <g id="xtick_5">
     <g id="line2d_14">
      <path clip-path="url(#p7ff5b81e1d)" d="
M295.2 388.8
L295.2 43.2" style="fill:none;stroke:#000000;stroke-dasharray:1.000000,3.000000;stroke-dashoffset:0.0;stroke-width:0.5;"/>
     </g>
     <g id="line2d_15">
      <g>
       <use style="stroke:#000000;stroke-width:0.5;" x="295.2" xlink:href="#m93b0483c22" y="388.8"/>
      </g>
     </g>
     <g id="line2d_16">
      <g>
       <use style="stroke:#000000;stroke-width:0.5;" x="295.2" xlink:href="#m741efc42ff" y="43.2"/>
      </g>
     </g>
     <g id="text_5">
      <!-- $0.0$ -->
      <g transform="translate(287.721179123 401.670650466)scale(0.12 -0.12)">
       <use transform="scale(0.996264009963)" xlink:href="#CMR17-48"/>
       <use transform="translate(45.6904771171 0.0)scale(0.996264009963)" xlink:href="#CMMI12-58"/>
       <use transform="translate(72.7876542069 0.0)scale(0.996264009963)" xlink:href="#CMR17-48"/>
      </g>
     </g>
    </g>
    <g id="xtick_6">
     <g id="line2d_17">
      <path clip-path="url(#p7ff5b81e1d)" d="
M351 388.8
L351 43.2" style="fill:none;stroke:#000000;stroke-dasharray:1.000000,3.000000;stroke-dashoffset:0.0;stroke-width:0.5;"/>
     </g>
     <g id="line2d_18">
      <g>
       <use style="stroke:#000000;stroke-width:0.5;" x="351.0" xlink:href="#m93b0483c22" y="388.8"/>
      </g>
     </g>
     <g id="line2d_19">
      <g>
       <use style="stroke:#000000;stroke-width:0.5;" x="351.0" xlink:href="#m741efc42ff" y="43.2"/>
      </g>
     </g>
     <g id="text_6">
      <!-- $2.5$ -->
      <g transform="translate(343.521179123 401.670650466)scale(0.12 -0.12)">
       <use transform="scale(0.996264009963)" xlink:href="#CMR17-50"/>
       <use transform="translate(45.6904771171 0.0)scale(0.996264009963)" xlink:href="#CMMI12-58"/>
       <use transform="translate(72.7876542069 0.0)scale(0.996264009963)" xlink:href="#CMR17-53"/>
      </g>
     </g>
    </g>
    <g id="xtick_7">
     <g id="line2d_20">
      <path clip-path="url(#p7ff5b81e1d)" d="
M406.8 388.8
L406.8 43.2" style="fill:none;stroke:#000000;stroke-dasharray:1.000000,3.000000;stroke-dashoffset:0.0;stroke-width:0.5;"/>
     </g>
     <g id="line2d_21">
      <g>
       <use style="stroke:#000000;stroke-width:0.5;" x="406.8" xlink:href="#m93b0483c22" y="388.8"/>
      </g>
     </g>
     <g id="line2d_22">
      <g>
       <use style="stroke:#000000;stroke-width:0.5;" x="406.8" xlink:href="#m741efc42ff" y="43.2"/>
      </g>
     </g>
     <g id="text_7">
      <!-- $5.0$ -->
      <g transform="translate(399.321179123 401.670650466)scale(0.12 -0.12)">
       <use transform="scale(0.996264009963)" xlink:href="#CMR17-53"/>
       <use transform="translate(45.6904771171 0.0)scale(0.996264009963)" xlink:href="#CMMI12-58"/>
       <use transform="translate(72.7876542069 0.0)scale(0.996264009963)" xlink:href="#CMR17-48"/>
      </g>
     </g>
    </g>
    <g id="xtick_8">
     <g id="line2d_23">
      <path clip-path="url(#p7ff5b81e1d)" d="
M462.6 388.8
L462.6 43.2" style="fill:none;stroke:#000000;stroke-dasharray:1.000000,3.000000;stroke-dashoffset:0.0;stroke-width:0.5;"/>
     </g>
     <g id="line2d_24">
      <g>
       <use style="stroke:#000000;stroke-width:0.5;" x="462.6" xlink:href="#m93b0483c22" y="388.8"/>
      </g>
     </g>
     <g id="line2d_25">
      <g>
       <use style="stroke:#000000;stroke-width:0.5;" x="462.6" xlink:href="#m741efc42ff" y="43.2"/>
      </g>
     </g>
     <g id="text_8">
      <!-- $7.5$ -->
      <g transform="translate(455.121179123 401.670650466)scale(0.12 -0.12)">
       <use transform="scale(0.996264009963)" xlink:href="#CMR17-55"/>
       <use transform="translate(45.6904771171 0.0)scale(0.996264009963)" xlink:href="#CMMI12-58"/>
       <use transform="translate(72.7876542069 0.0)scale(0.996264009963)" xlink:href="#CMR17-53"/>
      </g>
     </g>
    </g>
    <g id="text_9">
     <!-- \textit{x} -->
     <defs>
      <path d="
M20.0938 15.8281
L21.5938 9.15625
C23.2969 1.6875 25.9062 -1.09375 30.7969 -1.09375
C34.5 -1.09375 36.2969 0.109375 40.9062 5.6875
C42.7031 7.79688 43 8.29688 45.5938 12.875
L42.5 14.5469
C41.5 12.9531 41.2031 12.4531 39.7031 10.375
C36.7969 6.48438 35.0938 5 33.2969 5
C31 5 30 7.17188 28.2031 15.2812
L26.2969 24.6719
L30.7031 32.6719
C33.0938 37.125 35.2031 39.2969 37 39.2969
C37.7969 39.2969 38.2969 38.9062 38.7031 38
C39.5938 36 40.2969 35.5 42.0938 35.5
C45.2031 35.5 47.0938 37.5938 47.0938 40.9062
C47.0938 44.4062 44.7031 47 41.4062 47
C38.7031 47 35.7031 45.5938 33.5938 43.2969
C31.5938 41.0938 31.5 41.0938 28.0938 34.8594
L25.2031 29.7031
L24.0938 35.1719
C22.4062 43.7188 20.2031 47 16.0938 47
C13.9062 47 11.7031 45.7031 9.20312 42.9219
C7.59375 41.1094 6.20312 39.125 1.70312 32.6406
L4.59375 30.5781
C9.70312 37.8125 11.0938 39.2969 12.7969 39.2969
C13.5 39.2969 14.5 38.6094 14.9062 37.8125
C15.7969 36.25 15.7969 36.25 17.7969 26.4688
L19 20.75
L14.5 12.8281
C11.7031 7.78125 9.20312 5 7.59375 5
C6.90625 5 6.29688 5.70312 6.09375 7
C5.59375 9.70312 4.29688 10.9062 1.79688 10.9062
C-1.20312 10.9062 -3.29688 8.5 -3.29688 5.10938
C-3.29688 1.40625 -0.703125 -1.09375 3.29688 -1.09375
C8.09375 -1.09375 12.7969 2.89062 17.0938 10.4531
z
" id="Century_Schoolbook_L_Italic-120"/>
     </defs>
     <g transform="translate(291.464009963 420.030387268)scale(0.15 -0.15)">
      <use transform="scale(0.996264009963)" xlink:href="#Century_Schoolbook_L_Italic-120"/>
     </g>
    </g>
   </g>
   <g id="matplotlib.axis_2">
    <g id="ytick_1">
     <g id="line2d_26">
      <path clip-path="url(#p7ff5b81e1d)" d="
M72 376.744
L518.4 376.744" style="fill:none;stroke:#000000;stroke-dasharray:1.000000,3.000000;stroke-dashoffset:0.0;stroke-width:0.5;"/>
     </g>
     <g id="line2d_27">
      <defs>
       <path d="
M0 0
L4 0" id="m728421d6d4" style="stroke:#000000;stroke-width:0.5;"/>
      </defs>
      <g>
       <use style="stroke:#000000;stroke-width:0.5;" x="72.0" xlink:href="#m728421d6d4" y="376.744186047"/>
      </g>
     </g>
     <g id="line2d_28">
      <defs>
       <path d="
M0 0
L-4 0" id="mcb0005524f" style="stroke:#000000;stroke-width:0.5;"/>
      </defs>
      <g>
       <use style="stroke:#000000;stroke-width:0.5;" x="518.4" xlink:href="#mcb0005524f" y="376.744186047"/>
      </g>
     </g>
     <g id="text_10">
      <!-- $-1.0$ -->
      <g transform="translate(43.7438688171 380.043793719)scale(0.12 -0.12)">
       <use transform="scale(0.996264009963)" xlink:href="#CMSY10-0"/>
       <use transform="translate(77.4874676506 0.0)scale(0.996264009963)" xlink:href="#CMR17-49"/>
       <use transform="translate(123.177944768 0.0)scale(0.996264009963)" xlink:href="#CMMI12-58"/>
       <use transform="translate(150.275121857 0.0)scale(0.996264009963)" xlink:href="#CMR17-48"/>
      </g>
     </g>
    </g>
    <g id="ytick_2">
     <g id="line2d_29">
      <path clip-path="url(#p7ff5b81e1d)" d="
M72 296.372
L518.4 296.372" style="fill:none;stroke:#000000;stroke-dasharray:1.000000,3.000000;stroke-dashoffset:0.0;stroke-width:0.5;"/>
     </g>
     <g id="line2d_30">
      <g>
       <use style="stroke:#000000;stroke-width:0.5;" x="72.0" xlink:href="#m728421d6d4" y="296.372093023"/>
      </g>
     </g>
     <g id="line2d_31">
      <g>
       <use style="stroke:#000000;stroke-width:0.5;" x="518.4" xlink:href="#mcb0005524f" y="296.372093023"/>
      </g>
     </g>
     <g id="text_11">
      <!-- $-0.5$ -->
      <g transform="translate(43.7438688171 299.671700696)scale(0.12 -0.12)">
       <use transform="scale(0.996264009963)" xlink:href="#CMSY10-0"/>
       <use transform="translate(77.4874676506 0.0)scale(0.996264009963)" xlink:href="#CMR17-48"/>
       <use transform="translate(123.177944768 0.0)scale(0.996264009963)" xlink:href="#CMMI12-58"/>
       <use transform="translate(150.275121857 0.0)scale(0.996264009963)" xlink:href="#CMR17-53"/>
      </g>
     </g>
    </g>
    <g id="ytick_3">
     <g id="line2d_32">
      <path clip-path="url(#p7ff5b81e1d)" d="
M72 216
L518.4 216" style="fill:none;stroke:#000000;stroke-dasharray:1.000000,3.000000;stroke-dashoffset:0.0;stroke-width:0.5;"/>
     </g>
     <g id="line2d_33">
      <g>
       <use style="stroke:#000000;stroke-width:0.5;" x="72.0" xlink:href="#m728421d6d4" y="216.0"/>
      </g>
     </g>
     <g id="line2d_34">
      <g>
       <use style="stroke:#000000;stroke-width:0.5;" x="518.4" xlink:href="#mcb0005524f" y="216.0"/>
      </g>
     </g>
     <g id="text_12">
      <!-- $0.0$ -->
      <g transform="translate(53.0423582464 219.299607672)scale(0.12 -0.12)">
       <use transform="scale(0.996264009963)" xlink:href="#CMR17-48"/>
       <use transform="translate(45.6904771171 0.0)scale(0.996264009963)" xlink:href="#CMMI12-58"/>
       <use transform="translate(72.7876542069 0.0)scale(0.996264009963)" xlink:href="#CMR17-48"/>
      </g>
     </g>
    </g>
    <g id="ytick_4">
     <g id="line2d_35">
      <path clip-path="url(#p7ff5b81e1d)" d="
M72 135.628
L518.4 135.628" style="fill:none;stroke:#000000;stroke-dasharray:1.000000,3.000000;stroke-dashoffset:0.0;stroke-width:0.5;"/>
     </g>
     <g id="line2d_36">
      <g>
       <use style="stroke:#000000;stroke-width:0.5;" x="72.0" xlink:href="#m728421d6d4" y="135.627906977"/>
      </g>
     </g>
     <g id="line2d_37">
      <g>
       <use style="stroke:#000000;stroke-width:0.5;" x="518.4" xlink:href="#mcb0005524f" y="135.627906977"/>
      </g>
     </g>
     <g id="text_13">
      <!-- $0.5$ -->
      <g transform="translate(53.0423582464 138.927514649)scale(0.12 -0.12)">
       <use transform="scale(0.996264009963)" xlink:href="#CMR17-48"/>
       <use transform="translate(45.6904771171 0.0)scale(0.996264009963)" xlink:href="#CMMI12-58"/>
       <use transform="translate(72.7876542069 0.0)scale(0.996264009963)" xlink:href="#CMR17-53"/>
      </g>
     </g>
    </g>
    <g id="ytick_5">
     <g id="line2d_38">
      <path clip-path="url(#p7ff5b81e1d)" d="
M72 55.2558
L518.4 55.2558" style="fill:none;stroke:#000000;stroke-dasharray:1.000000,3.000000;stroke-dashoffset:0.0;stroke-width:0.5;"/>
     </g>
     <g id="line2d_39">
      <g>
       <use style="stroke:#000000;stroke-width:0.5;" x="72.0" xlink:href="#m728421d6d4" y="55.2558139535"/>
      </g>
     </g>
     <g id="line2d_40">
      <g>
       <use style="stroke:#000000;stroke-width:0.5;" x="518.4" xlink:href="#mcb0005524f" y="55.2558139535"/>
      </g>
     </g>
     <g id="text_14">
      <!-- $1.0$ -->
      <g transform="translate(53.0423582464 58.5554216259)scale(0.12 -0.12)">
       <use transform="scale(0.996264009963)" xlink:href="#CMR17-49"/>
       <use transform="translate(45.6904771171 0.0)scale(0.996264009963)" xlink:href="#CMMI12-58"/>
       <use transform="translate(72.7876542069 0.0)scale(0.996264009963)" xlink:href="#CMR17-48"/>
      </g>
     </g>
    </g>
    <g id="text_15">
     <!-- \textit{f(x)} -->
     <defs>
      <path d="
M-8.29688 -12.2969
C11.7969 -4.70312 26.5 17.4062 26.5 40
C26.5 52.9062 22.7031 64 15 73.5938
L12.9062 72.0938
C17.2031 63.5 18.5938 57.9062 18.5938 49.2031
C18.5938 33.9062 14.2969 17 7.29688 5
C3.5 -1.59375 -0.90625 -5.5 -9.29688 -10
z
" id="Century_Schoolbook_L_Italic-41"/>
      <path d="
M38.9062 73.5938
C18.7031 66.0938 4 44 4 21.2969
C4 8.5 7.79688 -2.59375 15.5938 -12.2969
L17.7031 -10.7969
C13.2969 -2.20312 11.9062 3.40625 11.9062 12.2031
C11.9062 27.4062 16.2969 44.4062 23.2031 56.2969
C27.0938 62.9062 31.5 66.9062 39.9062 71.2969
z
" id="Century_Schoolbook_L_Italic-40"/>
      <path d="
M21.9062 45.7031
C24.2969 55.2812 24.7969 57.0938 26.7969 61.8281
C29.2031 67.7969 31.9062 70.5 35.5938 70.5
C36.9062 70.5 38 69.8125 38 68.7969
C38 68.3906 37.9062 67.9844 37.2969 66.9688
C36.5938 65.8594 36.4062 65.0625 36.4062 64.1562
C36.4062 61.625 38.7031 59.6094 41.5938 59.6094
C44.7031 59.6094 47 61.9219 47 64.9375
C47 70.1719 42.2969 74 35.9062 74
C29.5938 74 24.0938 70.4688 20.2031 63.9219
C17.2969 59.2031 15.7031 54.9688 13.2031 45.7031
L4.5 45.7031
L3.20312 41
L12.0938 41
L8 23.6094
C4.5 8.90625 -0.59375 -6.20312 -6.79688 -20
L4.20312 -18.2031
C6.5 -12 12.2969 7.10938 14.5938 16.2969
L20.7969 41
L33.4062 41
L34.7969 45.7031
z
" id="Century_Schoolbook_L_Italic-102"/>
     </defs>
     <g transform="translate(35.9045711152 227.200399624)rotate(-90.0)scale(0.15 -0.15)">
      <use transform="scale(0.996264009963)" xlink:href="#Century_Schoolbook_L_Italic-102"/>
      <use transform="translate(33.1752297293 0.0)scale(0.996264009963)" xlink:href="#Century_Schoolbook_L_Italic-40"/>
      <use transform="translate(66.3504594587 0.0)scale(0.996264009963)" xlink:href="#Century_Schoolbook_L_Italic-120"/>
      <use transform="translate(116.163659957 0.0)scale(0.996264009963)" xlink:href="#Century_Schoolbook_L_Italic-41"/>
     </g>
    </g>
   </g>
   <g id="patch_3">
    <path d="
M72 43.2
L518.4 43.2" style="fill:none;stroke:#000000;"/>
   </g>
   <g id="patch_4">
    <path d="
M518.4 388.8
L518.4 43.2" style="fill:none;stroke:#000000;"/>
   </g>
   <g id="patch_5">
    <path d="
M72 388.8
L518.4 388.8" style="fill:none;stroke:#000000;"/>
   </g>
   <g id="patch_6">
    <path d="
M72 388.8
L72 43.2" style="fill:none;stroke:#000000;"/>
   </g>
   <g id="legend_1">
    <g id="patch_7">
     <path d="
M79.2 76.2662
L178.866 76.2662
L178.866 50.4
L79.2 50.4
L79.2 76.2662
z
" style="fill:#ffffff;stroke:#000000;"/>
    </g>
    <g id="line2d_41">
     <path d="
M89.28 61.8796
L109.44 61.8796" style="fill:none;stroke:#0000ff;stroke-linecap:square;"/>
    </g>
    <g id="line2d_42"/>
    <g id="text_16">
     <!-- $tanh(x)$ -->
     <defs>
      <path d="
M30.0938 11.875
C29.5938 10.1719 29.5938 9.98438 28.2031 8.07812
C26 5.28125 21.5938 1 16.9062 1
C12.7969 1 10.5 4.6875 10.5 10.5781
C10.5 16.0625 13.5938 27.2344 15.5 31.4375
C18.9062 38.4219 23.5938 42.0156 27.5 42.0156
C34.0938 42.0156 35.4062 33.8281 35.4062 33.0312
C35.4062 32.9375 35.0938 31.625 35 31.4375
z

M36.5 37.4219
C35.4062 40.0156 32.7031 44 27.5 44
C16.2031 44 4 29.4375 4 14.6719
C4 4.79688 9.79688 -1 16.5938 -1
C22.0938 -1 26.7969 3.29688 29.5938 6.59375
C30.5938 0.703125 35.2969 -1 38.2969 -1
C41.2969 -1 43.7031 0.796875 45.5 4.39062
C47.0938 7.78125 48.5 13.875 48.5 14.2656
C48.5 14.7656 48.0938 15.1719 47.5 15.1719
C46.5938 15.1719 46.5 14.6719 46.0938 13.1719
C44.5938 7.28125 42.7031 1 38.5938 1
C35.7031 1 35.5 3.59375 35.5 5.59375
C35.5 7.89062 35.7969 8.98438 36.7031 12.875
C37.4062 15.375 37.9062 17.5625 38.7031 20.4531
C42.4062 35.4219 43.2969 39.0156 43.2969 39.6094
C43.2969 41.0156 42.2031 42.1094 40.7031 42.1094
C37.5 42.1094 36.7031 38.625 36.5 37.4219" id="CMMI12-97"/>
      <path d="
M28.0938 66.5156
C28.2031 66.9219 28.4062 67.5156 28.4062 68
C28.4062 69 27.4062 69 27.2031 69
C27.0938 69 22.2031 68.5312 21.7031 68.3906
C20 68.3906 18.5 68.0938 16.7031 68.0938
C14.2031 67.8906 13.5 67.7969 13.5 66
C13.5 65 14.2969 65 15.7031 65
C20.5938 65 20.7031 64.0938 20.7031 63.0938
C20.7031 62.5156 20.5 61.7188 20.4062 61.4219
L5.90625 3.875
C5.5 2.375 5.5 2.1875 5.5 1.57812
C5.5 -0.59375 7.20312 -1 8.20312 -1
C9.90625 -1 11.2031 0.296875 11.7031 1.39062
L16.2031 19.4531
C16.7031 21.6562 17.2969 23.75 17.7969 25.9375
C18.9062 30.1406 18.9062 30.2344 20.7969 33.125
C22.7031 36.0156 27.2031 42.0156 34.9062 42.0156
C38.9062 42.0156 40.2969 39.0156 40.2969 35.0312
C40.2969 29.4375 36.4062 18.5625 34.2031 12.5781
C33.2969 10.1719 32.7969 8.875 32.7969 7.07812
C32.7969 2.59375 35.9062 -1 40.7031 -1
C50 -1 53.5 13.6719 53.5 14.2656
C53.5 14.7656 53.0938 15.1719 52.5 15.1719
C51.5938 15.1719 51.5 14.875 51 13.1719
C48.7031 5.1875 45 1 41 1
C40 1 38.4062 1 38.4062 4.20312
C38.4062 6.8125 39.5938 10 40 11.0938
C41.7969 15.9062 46.2969 27.7031 46.2969 33.5156
C46.2969 39.5 42.7969 44 35.2031 44
C29.5 44 24.5 41.3125 20.4062 36.125
z
" id="CMMI12-104"/>
      <path d="
M47.4062 40.7188
C44.2031 40.1094 43 37.7188 43 35.8281
C43 33.4219 44.9062 32.625 46.2969 32.625
C49.2969 32.625 51.4062 35.2188 51.4062 37.9219
C51.4062 42.1094 46.5938 44 42.4062 44
C36.2969 44 32.9062 38.0156 32 36.125
C29.7031 44 23.5 44 21.7031 44
C11.5 44 6.09375 30.9375 6.09375 28.7344
C6.09375 28.3438 6.5 27.8438 7.20312 27.8438
C8 27.8438 8.20312 28.4375 8.40625 28.8438
C11.7969 39.9219 18.5 42.0156 21.4062 42.0156
C25.9062 42.0156 26.7969 37.8125 26.7969 35.4219
C26.7969 33.2344 26.2031 30.9375 25 26.1406
L21.5938 12.4688
C20.0938 6.48438 17.2031 1 11.9062 1
C11.4062 1 8.90625 1 6.79688 2.29688
C10.4062 3 11.2031 5.98438 11.2031 7.1875
C11.2031 9.1875 9.70312 10.375 7.79688 10.375
C5.40625 10.375 2.79688 8.28125 2.79688 5.09375
C2.79688 0.890625 7.5 -1 11.7969 -1
C16.5938 -1 20 2.79688 22.0938 6.89062
C23.7031 1 28.7031 -1 32.4062 -1
C42.5938 -1 48 12.0781 48 14.2656
C48 14.7656 47.5938 15.1719 47 15.1719
C46.0938 15.1719 46 14.6719 45.7031 13.875
C43 5.09375 37.2031 1 32.7031 1
C29.2031 1 27.2969 3.59375 27.2969 7.6875
C27.2969 9.875 27.7031 11.4688 29.2969 18.0625
L32.7969 31.625
C34.2969 37.625 37.7031 42.0156 42.2969 42.0156
C42.5 42.0156 45.2969 42.0156 47.4062 40.7188" id="CMMI12-120"/>
      <path d="
M20.0938 40.0938
L29.2969 40.0938
C31.2031 40.0938 32.2031 40.0938 32.2031 41.8906
C32.2031 43 31.5938 43 29.5938 43
L20.7969 43
L24.5 57.6875
C24.9062 59.0781 24.9062 59.2812 24.9062 60
C24.9062 61.6094 23.5938 62.5 22.2969 62.5
C21.5 62.5 19.2031 62.2031 18.4062 58.9844
L14.5 43
L5.09375 43
C3.09375 43 2.20312 43 2.20312 41.0938
C2.20312 40.0938 2.90625 40.0938 4.79688 40.0938
L13.7031 40.0938
L7.09375 13.7656
C6.29688 10.2812 6 9.28125 6 7.98438
C6 3.29688 9.29688 -1 14.9062 -1
C25 -1 30.4062 13.5781 30.4062 14.2656
C30.4062 14.875 30 15.1719 29.4062 15.1719
C29.2031 15.1719 28.7969 15.1719 28.5938 14.7656
C28.5 14.6719 28.4062 14.5625 27.7031 12.9688
C25.5938 7.98438 21 1 15.2031 1
C12.2031 1 12 3.5 12 5.6875
C12 5.78125 12 7.6875 12.2969 8.875
z
" id="CMMI12-116"/>
      <path d="
M20.5938 29.2344
C20.7969 29.8438 23.2969 34.8281 27 38.0156
C29.5938 40.4062 33 42.0156 36.9062 42.0156
C40.9062 42.0156 42.2969 39.0156 42.2969 35.0312
C42.2969 29.3438 38.2031 17.9688 36.2031 12.5781
C35.2969 10.1719 34.7969 8.875 34.7969 7.07812
C34.7969 2.59375 37.9062 -1 42.7031 -1
C52 -1 55.5 13.6719 55.5 14.2656
C55.5 14.7656 55.0938 15.1719 54.5 15.1719
C53.5938 15.1719 53.5 14.875 53 13.1719
C50.7031 4.98438 46.9062 1 43 1
C42 1 40.4062 1 40.4062 4.20312
C40.4062 6.70312 41.5 9.70312 42.0938 11.0938
C44.0938 16.6094 48.2969 27.8125 48.2969 33.5156
C48.2969 39.5 44.7969 44 37.2031 44
C28.2969 44 23.5938 37.7344 21.7969 35.2344
C21.5 40.9062 17.4062 44 13 44
C9.79688 44 7.59375 42.1094 5.90625 38.7188
C4.09375 35.125 2.70312 29.1406 2.70312 28.7344
C2.70312 28.3438 3.09375 27.8438 3.79688 27.8438
C4.59375 27.8438 4.70312 27.9375 5.29688 30.2344
C6.90625 36.3281 8.70312 42.0156 12.7031 42.0156
C15 42.0156 15.7969 40.4062 15.7969 37.4219
C15.7969 35.2188 14.7969 31.3281 14.0938 28.2344
L11.2969 17.4688
C10.9062 15.5625 9.79688 11.0781 9.29688 9.28125
C8.59375 6.6875 7.5 2 7.5 1.5
C7.5 0.09375 8.59375 -1 10.0938 -1
C11.2969 -1 12.7031 -0.40625 13.5 1.09375
C13.7031 1.59375 14.5938 5.09375 15.0938 7.07812
L17.2969 16.0625
z
" id="CMMI12-110"/>
      <path d="
M26.2969 24.6719
C26.2969 31.8438 25.5938 43.9844 19.5938 56.8281
C14.7969 67.1875 6.59375 74.4531 5.40625 74.4531
C5.09375 74.4531 4.70312 74.3438 4.70312 73.8594
C4.70312 73.6719 4.79688 73.5625 4.90625 73.3594
C9.70312 68.3906 21.9062 55.75 21.9062 24.7969
C21.9062 -6.28125 9.79688 -18.9219 4.90625 -23.9062
C4.79688 -24.0938 4.70312 -24.2031 4.70312 -24.3906
C4.70312 -24.8906 5.09375 -25 5.40625 -25
C6.5 -25 15 -17.625 19.9062 -6.67188
C24.9062 4.375 26.2969 15.125 26.2969 24.6719" id="CMR17-41"/>
      <path d="
M30.5938 -24.4062
C30.5938 -24.3125 30.5938 -24.1094 30.2969 -23.8125
C25.7031 -19.1406 13.4062 -6.39062 13.4062 24.6719
C13.4062 55.75 25.5 68.3906 30.4062 73.3594
C30.4062 73.4688 30.5938 73.6719 30.5938 73.9531
C30.5938 74.25 30.2969 74.4531 29.9062 74.4531
C28.7969 74.4531 20.2969 67.0781 15.4062 56.125
C10.4062 45.0781 9 34.3281 9 24.7812
C9 17.6094 9.70312 5.46875 15.7031 -7.375
C20.5 -17.7344 28.7031 -25 29.9062 -25
C30.4062 -25 30.5938 -24.7969 30.5938 -24.4062" id="CMR17-40"/>
     </defs>
     <g transform="translate(125.28 66.9196391462)scale(0.144 -0.144)">
      <use transform="scale(0.996264009963)" xlink:href="#CMMI12-116"/>
      <use transform="translate(35.2263302168 0.0)scale(0.996264009963)" xlink:href="#CMMI12-97"/>
      <use transform="translate(86.4341878357 0.0)scale(0.996264009963)" xlink:href="#CMMI12-110"/>
      <use transform="translate(144.664235192 0.0)scale(0.996264009963)" xlink:href="#CMMI12-104"/>
      <use transform="translate(200.81885921 0.0)scale(0.996264009963)" xlink:href="#CMR17-40"/>
      <use transform="translate(236.099627009 0.0)scale(0.996264009963)" xlink:href="#CMMI12-120"/>
      <use transform="translate(291.533686542 0.0)scale(0.996264009963)" xlink:href="#CMR17-41"/>
     </g>
    </g>
   </g>
  </g>
 </g>
 <defs>
  <clipPath id="p7ff5b81e1d">
   <rect height="345.6" width="446.4" x="72.0" y="43.2"/>
  </clipPath>
 </defs>
</svg>
